<?xml version="1.0" encoding="utf-8"?>
<!-- Generator: Adobe Illustrator 16.0.4, SVG Export Plug-In . SVG Version: 6.00 Build 0)  -->
<!DOCTYPE svg PUBLIC "-//W3C//DTD SVG 1.1//EN" "http://www.w3.org/Graphics/SVG/1.1/DTD/svg11.dtd">
<svg version="1.1" xmlns="http://www.w3.org/2000/svg" xmlns:xlink="http://www.w3.org/1999/xlink" x="0px" y="0px"
	 width="368.892px" height="284.326px" viewBox="0 0 368.892 284.326" enable-background="new 0 0 368.892 284.326"
	 xml:space="preserve">
<g id="Calque_2" display="none">
</g>
<g id="Calque_1">
	<g>
		<linearGradient id="SVGID_1_" gradientUnits="userSpaceOnUse" x1="195.0352" y1="-12.5815" x2="139.0897" y2="170.8107">
			<stop  offset="0.0121" style="stop-color:#272E38"/>
			<stop  offset="0.1538" style="stop-color:#373F49"/>
			<stop  offset="0.3223" style="stop-color:#474F59"/>
			<stop  offset="1" style="stop-color:#718399"/>
		</linearGradient>
		<path fill="url(#SVGID_1_)" d="M99.677,260.541c-18.891-7.496-32.247-25.936-32.247-47.494c0-3.599,0.371-7.111,1.079-10.5h0.001
			c19.435,47.97,157.22,35.072,142.104,27.264c2.171-35.693,30.578-66.092,66.817-66.092c16.281,0,14.118-81.753,12.019-81.572
			c0.257-1.771,0.39-3.583,0.39-5.424c0-5.083-1.389-12.082-5.577-19.653C266.475,24.231,224.246,0,180.419,0
			C126.668,0,81.021,34.691,64.644,82.905l0,0c-1.173,3.326-2.524,6.605-3.414,10.055l-0.233,0.071
			C25.781,103.985,0.213,136.831,0.213,175.65c0,47.778,38.731,86.508,86.508,86.508c4.825,0,9.558-0.395,14.168-1.155
			L99.677,260.541z"/>
		<linearGradient id="SVGID_2_" gradientUnits="userSpaceOnUse" x1="43.4038" y1="127.4507" x2="58.7927" y2="241.5842">
			<stop  offset="0" style="stop-color:#474F59"/>
			<stop  offset="0.507" style="stop-color:#718399"/>
			<stop  offset="1" style="stop-color:#FFFFFF"/>
		</linearGradient>
		<path fill="url(#SVGID_2_)" d="M88.379,86.078c-48.811,0-88.38,39.569-88.38,88.38c0,48.812,39.57,88.38,88.38,88.38
			c4.685,0,9.284-0.366,13.771-1.068c-20.496-9.462-34.72-30.193-34.72-54.25c0-8.777,1.893-17.112,5.294-24.618"/>
		<linearGradient id="SVGID_3_" gradientUnits="userSpaceOnUse" x1="301.4551" y1="163.7236" x2="307.8673" y2="148.9758">
			<stop  offset="0" style="stop-color:#F37028"/>
			<stop  offset="1" style="stop-color:#F99B25"/>
		</linearGradient>
		<path fill="url(#SVGID_3_)" d="M267.531,166.435c48.088-16.089,79.177,18.558,79.177,18.558
			c4.04-18.699-5.066-21.316-31.993-32.43c-33.738-13.923-63.334,0.985-63.334,0.985"/>
		<path fill="none" stroke="#232020" stroke-width="1.2823" stroke-miterlimit="10" d="M268.602,110.356"/>
		<linearGradient id="SVGID_4_" gradientUnits="userSpaceOnUse" x1="310.7603" y1="206.9688" x2="309.478" y2="99.2477">
			<stop  offset="0" style="stop-color:#FFFFFF"/>
			<stop  offset="0.2172" style="stop-color:#F99B25"/>
			<stop  offset="1" style="stop-color:#FEBC11"/>
		</linearGradient>
		<path fill="url(#SVGID_4_)" d="M346.586,207.649c0,0,13.989-35.355-35.656-55.692c0,0-29.92-11.741-59.551,1.592
			c0,0,30.696-14.911,28.209-51.332c0,0,9.553-10.397,9.647-20.069c0,0,38.109-5.449,64.278,28.209
			C353.514,110.356,392.349,158.442,346.586,207.649z"/>
		<linearGradient id="SVGID_5_" gradientUnits="userSpaceOnUse" x1="321.3027" y1="223.9727" x2="321.3027" y2="223.9727">
			<stop  offset="0" style="stop-color:#FFFFFF"/>
			<stop  offset="1" style="stop-color:#3EC8F5"/>
		</linearGradient>
		<path fill="url(#SVGID_5_)" d="M321.302,223.972"/>
		<path fill="#85540A" d="M296.956,97.277c0,0,5.77,3.655,16.029,3.014c0,0-1.477,8.01-10.452,6.728
			C293.556,105.736,295.651,99.076,296.956,97.277z"/>
		<linearGradient id="SVGID_6_" gradientUnits="userSpaceOnUse" x1="230.4175" y1="160.7798" x2="215.0302" y2="259.9419">
			<stop  offset="0" style="stop-color:#474F59"/>
			<stop  offset="0.507" style="stop-color:#718399"/>
			<stop  offset="1" style="stop-color:#FFFFFF"/>
		</linearGradient>
		<path fill="url(#SVGID_6_)" d="M251.38,153.548c0,0-40.189,9.668-66.553,56.207l10.425,27.13h20.194l1.659-5.073
			c0,0,0.635-45.99,50.426-65.377L251.38,153.548z"/>
		<linearGradient id="SVGID_7_" gradientUnits="userSpaceOnUse" x1="117.2046" y1="107.687" x2="144.7718" y2="247.1261">
			<stop  offset="0" style="stop-color:#474F59"/>
			<stop  offset="0.507" style="stop-color:#718399"/>
			<stop  offset="1" style="stop-color:#FFFFFF"/>
		</linearGradient>
		<path fill="url(#SVGID_7_)" d="M56.841,155.886c0,70.936,60.726,128.439,131.663,128.439c12.115,0,23.838-1.678,34.951-4.814
			c-68.134-3.151-109.78-56.682-109.78-125.595"/>
		<linearGradient id="SVGID_8_" gradientUnits="userSpaceOnUse" x1="234.7676" y1="97.8452" x2="207.1329" y2="246.3006">
			<stop  offset="0" style="stop-color:#474F59"/>
			<stop  offset="0.507" style="stop-color:#718399"/>
			<stop  offset="1" style="stop-color:#FFFFFF"/>
		</linearGradient>
		<path fill="url(#SVGID_8_)" d="M321.302,225.113c-21.222,25.514-53.207,41.758-88.987,41.758
			c-63.894,0-115.691-51.797-115.691-115.692c0-50.695,32.607-93.772,77.991-109.409c-26.346,20.411-43.307,52.354-43.307,88.259
			c0,61.624,49.956,111.58,111.581,111.58C284.305,241.609,304.311,235.573,321.302,225.113z"/>
		<linearGradient id="SVGID_9_" gradientUnits="userSpaceOnUse" x1="157.0542" y1="65.6382" x2="162.1374" y2="259.6288">
			<stop  offset="0" style="stop-color:#474F59"/>
			<stop  offset="0.507" style="stop-color:#718399"/>
			<stop  offset="1" style="stop-color:#FFFFFF"/>
		</linearGradient>
		<path fill="url(#SVGID_9_)" d="M101.249,28.917c-23.799,20.68-41.323,50.599-41.323,80.519v14.959
			c0,85.1,81.909,149.306,167.008,149.306c11.75,0,23.191-1.317,34.187-3.809c-2.969,0.17-5.959,0.26-8.971,0.26
			c-85.1,0-128.986-62.836-128.986-147.936c0-13.241,42.02-67.856,43.821-80.447"/>
		<linearGradient id="SVGID_10_" gradientUnits="userSpaceOnUse" x1="299.1069" y1="109.6177" x2="-66.5276" y2="66.3485">
			<stop  offset="0.0121" style="stop-color:#272E38"/>
			<stop  offset="0.1538" style="stop-color:#373F49"/>
			<stop  offset="0.3223" style="stop-color:#474F59"/>
			<stop  offset="1" style="stop-color:#718399"/>
		</linearGradient>
		<path fill="url(#SVGID_10_)" d="M264.141,112.183c0,0,6.134-28.342-35.218-41.816c0,0-44.414-13.746-75.269,36.79
			c0,0-18.246,32.798-13.543,61.435c-0.208-1.368-29.707-24.868-21.798-70.457c0,0,4.65-63.188,78.218-74.867
			c26.923-4.273,66.699,3.206,86.743,32.404c0,0,14.663,21.024,0.2,41.605l0,0C283.474,97.277,276.614,108.774,264.141,112.183z"/>
		
			<ellipse transform="matrix(0.9982 0.0603 -0.0603 0.9982 6.726 -14.7083)" fill="#313843" cx="246.866" cy="103.998" rx="22.242" ry="11.314"/>
		
			<linearGradient id="SVGID_11_" gradientUnits="userSpaceOnUse" x1="-519.0063" y1="-1073.8159" x2="-496.7651" y2="-1073.8159" gradientTransform="matrix(0.9821 -0.1882 0.1882 0.9821 951.1418 1063.4299)">
			<stop  offset="0" style="stop-color:#F99B25"/>
			<stop  offset="1" style="stop-color:#FEBC11"/>
		</linearGradient>
		<circle fill="url(#SVGID_11_)" cx="250.2" cy="104.414" r="11.121"/>
		<circle fill="#232020" cx="250.2" cy="104.414" r="7.645"/>
		
			<ellipse transform="matrix(0.509 -0.8608 0.8608 0.509 39.4615 267.711)" fill="#FFFFFF" cx="254.384" cy="99.267" rx="1.831" ry="5.299"/>
	</g>
</g>
</svg>
